<?xml version="1.0" standalone="no"?>
<!DOCTYPE svg PUBLIC "-//W3C//DTD SVG 20010904//EN"
 "http://www.w3.org/TR/2001/REC-SVG-20010904/DTD/svg10.dtd">
<svg version="1.0" xmlns="http://www.w3.org/2000/svg"
 width="500.000000pt" height="133.000000pt" viewBox="0 0 500.000000 133.000000"
 preserveAspectRatio="xMidYMid meet">

<g transform="translate(0.000000,133.000000) scale(0.100000,-0.100000)"
fill="#000000" stroke="none">
<path d="M590 1321 c-21 -6 -22 -8 -7 -14 20 -8 24 -72 5 -80 -7 -3 3 -6 22
-6 24 0 31 2 21 8 -8 5 -11 16 -7 26 5 14 9 15 21 5 8 -7 15 -19 15 -27 0 -10
6 -13 16 -9 9 3 20 6 26 6 6 0 -2 10 -18 22 -16 12 -31 24 -34 26 -3 2 8 15
23 28 l28 24 -26 0 c-14 0 -24 -4 -21 -9 3 -4 -6 -19 -19 -31 l-25 -23 0 21
c0 12 5 22 10 22 6 0 10 5 10 10 0 11 -4 11 -40 1z"/>
<path d="M775 1320 c-3 -5 -1 -10 4 -10 6 0 11 5 11 10 0 6 -2 10 -4 10 -3 0
-8 -4 -11 -10z"/>
<path d="M767 1270 c3 -11 0 -27 -7 -35 -10 -12 -9 -15 6 -15 15 0 19 8 20 35
0 21 -4 35 -12 35 -7 0 -10 -8 -7 -20z"/>
<path d="M865 1277 c-12 -14 -13 -57 -2 -74 14 -22 28 -14 15 8 -11 17 -10 22
2 32 9 7 14 20 12 30 -4 20 -13 21 -27 4z"/>
<path d="M392 1229 c-30 -11 -23 -33 11 -37 31 -4 37 -22 7 -22 -11 0 -20 -4
-20 -10 0 -15 15 -12 40 8 28 23 18 45 -16 36 -14 -4 -24 -2 -24 4 0 6 10 12
23 14 12 2 18 6 12 9 -5 4 -21 3 -33 -2z"/>
<path d="M951 1206 c-17 -21 3 -56 32 -55 l22 0 -22 9 c-27 11 -30 38 -7 47
11 4 22 -1 30 -12 8 -10 14 -14 14 -9 0 31 -49 44 -69 20z"/>
<path d="M280 1198 c0 -9 5 -20 10 -23 13 -8 13 5 0 25 -8 13 -10 13 -10 -2z"/>
<path d="M1094 1181 c8 -12 -33 -61 -51 -61 -13 0 -13 -3 -3 -15 13 -16 35
-21 26 -6 -9 13 19 32 38 25 22 -8 20 -20 -5 -38 -12 -8 -18 -19 -14 -25 10
-17 19 -13 33 16 16 36 15 50 -3 57 -12 4 -13 10 -6 25 10 18 6 31 -11 31 -5
0 -7 -4 -4 -9z"/>
<path d="M210 1129 c0 -5 5 -7 10 -4 6 3 10 8 10 11 0 2 -4 4 -10 4 -5 0 -10
-5 -10 -11z"/>
<path d="M226 1111 c-3 -5 4 -11 15 -14 11 -3 23 -15 26 -26 4 -17 8 -19 19
-10 15 12 20 34 5 25 -4 -3 -16 3 -26 14 -20 22 -31 25 -39 11z"/>
<path d="M156 1019 c-8 -13 -13 -25 -10 -28 3 -3 10 2 15 12 11 19 18 21 37 9
7 -5 10 -16 6 -25 -8 -22 -25 -11 -17 11 5 13 3 15 -7 5 -15 -14 -7 -43 12
-43 7 0 20 13 30 29 15 27 15 30 0 34 -10 3 -24 8 -33 12 -11 4 -22 -1 -33
-16z"/>
<path d="M1157 1033 c-11 -11 -8 -48 5 -61 20 -20 32 -13 14 7 -10 11 -16 26
-14 33 3 8 9 5 17 -10 16 -30 41 -29 41 2 0 29 -43 49 -63 29z m53 -25 c0 -13
-23 -5 -28 10 -2 7 2 10 12 6 9 -3 16 -11 16 -16z"/>
<path d="M1255 931 c7 -12 -31 -25 -47 -15 -8 5 -9 2 -5 -10 4 -10 7 -20 7
-22 0 -2 9 1 20 8 16 10 23 10 36 -4 15 -15 15 -17 -5 -27 -12 -7 -25 -9 -30
-6 -5 3 -7 -4 -4 -15 7 -25 8 -25 41 5 23 22 25 28 14 45 -6 11 -12 27 -12 35
0 8 -5 15 -11 15 -5 0 -8 -4 -4 -9z"/>
<path d="M57 906 c-10 -25 -9 -48 2 -42 5 3 23 -9 39 -28 29 -34 42 -36 42 -9
0 7 -6 12 -12 11 -7 -2 -13 3 -12 10 1 6 2 19 3 27 1 18 31 20 31 3 0 -17 20
12 20 29 0 9 -7 10 -26 3 -35 -14 -71 -13 -76 2 -3 7 -7 5 -11 -6z m53 -25 c0
-18 -18 -21 -30 -6 -10 13 -9 15 9 15 11 0 21 -4 21 -9z"/>
<path d="M650 846 c-6 -8 -10 -27 -8 -42 3 -24 -1 -28 -42 -38 -88 -23 -153
-79 -179 -155 -21 -65 -37 -61 265 -61 l277 0 -6 35 c-13 78 -78 145 -170 176
-47 16 -52 20 -53 49 -1 18 -8 36 -15 41 -21 13 -55 11 -69 -5z m-35 -116 c3
-5 -17 -24 -45 -41 -27 -17 -50 -35 -50 -40 0 -5 -7 -9 -15 -9 -38 0 -1 51 60
83 36 19 42 20 50 7z"/>
<path d="M2466 813 c-17 -105 10 -131 37 -36 9 31 16 58 14 59 -1 1 -12 4 -23
8 -18 6 -22 1 -28 -31z"/>
<path d="M2332 821 c-8 -5 -12 -17 -10 -27 5 -27 61 -27 66 0 4 18 -13 36 -33
36 -5 0 -16 -4 -23 -9z"/>
<path d="M3432 818 c-19 -19 -14 -37 14 -44 30 -8 47 6 42 32 -4 23 -38 30
-56 12z"/>
<path d="M1680 801 c0 -13 8 -21 24 -23 l24 -3 -51 -122 c-49 -114 -54 -123
-79 -123 -21 0 -28 -5 -28 -20 0 -18 7 -20 80 -20 73 0 80 2 80 20 0 15 -7 20
-29 20 l-29 0 15 40 16 40 68 0 c66 0 69 -1 84 -30 21 -40 19 -50 -10 -50 -18
0 -25 -5 -25 -20 0 -18 7 -20 80 -20 72 0 80 2 80 19 0 14 -8 21 -26 23 -24 3
-33 17 -80 126 -52 121 -52 122 -28 122 17 0 24 6 24 20 0 19 -7 20 -95 20
-87 0 -95 -2 -95 -19z m144 -138 c7 -22 5 -23 -48 -23 -31 0 -56 2 -56 5 0 3
12 35 27 72 l27 67 22 -49 c11 -28 24 -60 28 -72z"/>
<path d="M2970 800 c0 -16 7 -20 30 -20 l30 0 0 -125 0 -125 -30 0 c-23 0 -30
-4 -30 -20 0 -18 7 -20 85 -20 78 0 85 2 85 20 0 16 -7 20 -30 20 -25 0 -30 4
-30 23 0 23 56 87 76 87 6 0 32 -25 58 -55 46 -53 46 -55 22 -55 -19 0 -26 -5
-26 -20 0 -18 7 -20 80 -20 73 0 80 2 80 20 0 14 -7 20 -24 20 -16 0 -41 21
-85 69 -33 38 -61 73 -60 78 1 16 117 103 138 103 14 0 21 6 21 20 0 18 -7 20
-80 20 -72 0 -80 -2 -80 -19 0 -14 8 -21 27 -23 25 -3 22 -7 -50 -68 -43 -36
-82 -66 -87 -68 -6 -2 -10 26 -10 67 l0 71 30 0 c23 0 30 4 30 20 0 18 -7 20
-85 20 -78 0 -85 -2 -85 -20z"/>
<path d="M4022 803 c2 -10 13 -19 26 -21 21 -3 22 -7 22 -127 0 -120 -1 -124
-22 -127 -13 -2 -24 -11 -26 -20 -3 -16 5 -18 67 -18 64 0 71 2 71 20 0 13 -7
20 -20 20 -17 0 -20 7 -20 49 0 43 4 53 31 75 32 28 77 34 97 14 7 -7 12 -39
12 -75 0 -56 -2 -63 -20 -63 -13 0 -20 -7 -20 -20 0 -18 7 -20 71 -20 62 0 70
2 67 18 -2 9 -13 18 -25 20 -19 3 -21 11 -25 77 -2 54 -8 79 -22 94 -27 29
-83 28 -130 -4 l-36 -24 0 74 0 75 -51 0 c-43 0 -50 -3 -47 -17z"/>
<path d="M3600 750 c0 -25 -4 -30 -25 -30 -18 0 -25 -5 -25 -20 0 -15 7 -20
25 -20 24 0 25 -2 25 -75 0 -68 3 -79 26 -102 22 -21 32 -25 66 -20 46 6 63
19 55 41 -5 13 -12 14 -32 6 -18 -7 -33 -7 -46 0 -16 9 -19 22 -19 80 l0 70
35 0 c28 0 35 4 35 20 0 16 -7 20 -35 20 -32 0 -35 2 -35 30 0 25 -4 30 -25
30 -21 0 -25 -5 -25 -30z"/>
<path d="M2039 709 c-20 -7 -26 -15 -22 -29 4 -15 9 -17 30 -9 46 17 100 11
117 -13 24 -34 20 -40 -28 -33 -108 17 -175 -56 -111 -120 29 -30 63 -32 115
-5 32 16 40 17 47 6 11 -18 45 -28 62 -17 17 11 7 42 -11 39 -9 -2 -14 19 -18
75 -4 67 -8 82 -29 98 -26 21 -105 25 -152 8z m131 -129 c32 -22 -66 -74 -99
-53 -21 13 -26 43 -9 54 18 12 90 11 108 -1z"/>
<path d="M2287 713 c-15 -15 -5 -32 21 -35 26 -3 27 -5 30 -75 l3 -72 -28 -3
c-17 -2 -29 -10 -31 -20 -3 -16 6 -18 78 -18 72 0 81 2 78 18 -2 10 -14 18
-31 20 l-27 3 0 95 0 94 -43 0 c-24 0 -47 -3 -50 -7z"/>
<path d="M2587 702 c-22 -24 -21 -65 1 -85 10 -10 43 -25 73 -35 39 -14 55
-24 57 -40 5 -34 -33 -38 -90 -8 -27 14 -54 26 -59 26 -5 0 -9 -16 -9 -35 0
-28 4 -35 20 -35 11 0 20 4 20 9 0 6 17 3 37 -5 39 -17 94 -14 119 7 18 15 18
73 0 88 -8 7 -40 22 -73 35 -43 16 -58 27 -58 42 0 31 55 31 93 0 16 -15 33
-26 36 -26 3 0 6 18 6 40 0 28 -4 40 -14 40 -8 0 -16 -5 -18 -11 -3 -9 -9 -9
-25 0 -34 17 -97 14 -116 -7z"/>
<path d="M3390 701 c0 -16 6 -21 25 -21 24 0 25 -2 25 -75 0 -73 -1 -75 -25
-75 -18 0 -25 -5 -25 -20 0 -18 7 -20 75 -20 68 0 75 2 75 20 0 15 -7 20 -25
20 -24 0 -24 2 -27 93 l-3 92 -47 3 c-43 3 -48 1 -48 -17z"/>
<path d="M3822 704 c-83 -58 -55 -201 44 -220 62 -11 144 25 124 55 -7 13 -13
12 -43 -4 -83 -45 -164 45 -106 119 26 33 86 37 114 6 28 -31 45 -25 45 15 0
38 -25 59 -41 34 -6 -11 -11 -11 -21 -1 -17 17 -89 15 -116 -4z"/>
<path d="M4439 703 c-80 -49 -77 -168 5 -207 42 -20 76 -20 120 -2 39 16 53
33 38 48 -6 6 -20 4 -40 -6 -17 -9 -42 -16 -55 -16 -31 0 -77 36 -77 60 0 16
5 17 43 8 102 -23 175 45 112 107 -19 20 -34 25 -72 25 -27 0 -60 -8 -74 -17z
m95 -23 c29 -11 35 -44 10 -54 -22 -9 -87 -7 -102 2 -9 6 -7 13 10 29 13 11
30 23 38 26 8 3 16 6 17 6 1 1 13 -3 27 -9z"/>
<path d="M4650 701 c0 -16 6 -21 25 -21 24 0 25 -2 25 -75 0 -73 -1 -75 -25
-75 -18 0 -25 -5 -25 -20 0 -18 7 -20 70 -20 63 0 70 2 70 20 0 13 -7 20 -20
20 -17 0 -20 7 -20 49 0 43 4 53 31 75 62 53 109 22 109 -71 0 -46 -3 -53 -20
-53 -13 0 -20 -7 -20 -20 0 -18 7 -20 65 -20 58 0 65 2 65 20 0 13 -7 20 -20
20 -17 0 -20 7 -20 43 -1 61 -16 120 -36 134 -30 22 -89 16 -123 -12 l-30 -26
-3 23 c-3 20 -10 23 -50 26 -43 3 -48 1 -48 -17z"/>
<path d="M42 678 c-28 -28 -3 -72 39 -66 30 4 47 33 33 56 -14 21 -55 27 -72
10z"/>
<path d="M1260 671 c-16 -31 4 -63 37 -59 34 4 52 32 37 56 -16 26 -60 28 -74
3z"/>
<path d="M380 515 c-7 -8 -10 -22 -6 -30 8 -23 614 -23 622 0 4 8 1 22 -6 30
-19 22 -591 22 -610 0z"/>
<path d="M60 475 c0 -4 5 -16 11 -27 9 -17 13 -18 20 -7 8 11 12 10 24 -6 18
-23 14 -41 -8 -37 -11 2 -14 -3 -10 -18 6 -24 23 -37 23 -17 0 19 56 70 69 63
15 -10 13 4 -4 34 -8 14 -14 19 -15 13 0 -16 -63 -17 -91 -3 -10 6 -19 8 -19
5z m100 -40 c-12 -15 -30 -12 -30 6 0 5 10 9 21 9 18 0 19 -2 9 -15z"/>
<path d="M1221 446 c-7 -8 -10 -20 -6 -26 3 -5 2 -10 -3 -10 -6 0 -13 -7 -16
-15 -3 -9 -1 -15 7 -14 31 4 47 -2 47 -18 1 -16 2 -16 15 1 20 27 19 33 -7 32
-17 -1 -24 5 -26 22 -3 16 2 22 17 22 11 0 24 -7 29 -16 8 -15 10 -14 16 1 8
22 8 21 -30 29 -22 5 -35 2 -43 -8z"/>
<path d="M205 316 c20 -30 8 -41 -15 -14 -11 13 -23 19 -33 15 -23 -9 -21 -19
6 -49 l22 -24 24 22 c25 23 23 57 -4 68 -13 5 -13 2 0 -18z m-17 -35 c3 -8 -1
-12 -9 -9 -7 2 -15 10 -17 17 -3 8 1 12 9 9 7 -2 15 -10 17 -17z"/>
<path d="M1150 315 c-18 -21 2 -65 29 -65 22 0 53 38 44 53 -3 6 -10 0 -15
-12 -10 -29 -42 -24 -46 7 -2 12 2 22 8 22 8 0 10 -8 7 -22 -5 -19 -5 -20 10
-6 16 17 10 38 -11 38 -8 0 -19 -7 -26 -15z"/>
<path d="M305 250 c3 -5 8 -10 11 -10 2 0 4 5 4 10 0 6 -5 10 -11 10 -5 0 -7
-4 -4 -10z"/>
<path d="M267 230 c-3 -11 -15 -24 -27 -28 l-21 -8 20 -18 c15 -14 21 -15 21
-6 0 8 9 23 20 35 18 19 19 24 7 34 -12 9 -16 7 -20 -9z"/>
<path d="M1065 218 c-15 -22 -17 -22 -30 -4 -13 18 -35 15 -35 -5 0 -6 4 -8 8
-5 13 8 65 -50 58 -63 -9 -15 7 -14 21 0 9 9 7 16 -8 28 -17 14 -18 18 -6 35
13 17 14 17 30 1 10 -9 15 -21 12 -26 -9 -13 9 -11 23 3 9 9 4 17 -20 35 -18
13 -33 23 -34 23 -2 0 -10 -10 -19 -22z"/>
<path d="M350 205 c-14 -16 -10 -18 14 -9 9 3 16 10 16 15 0 14 -16 11 -30 -6z"/>
<path d="M963 149 c-27 -10 -31 -50 -8 -69 12 -10 21 -10 40 -2 14 7 25 16 25
22 0 6 -7 6 -19 -1 -10 -7 -26 -9 -35 -6 -25 10 -15 40 14 47 14 3 20 9 15 12
-6 3 -20 2 -32 -3z"/>
<path d="M393 134 c-3 -8 -1 -20 6 -27 6 -6 11 -18 11 -26 -1 -12 -5 -11 -19
6 -17 20 -31 21 -31 3 0 -8 45 -30 60 -30 16 0 11 32 -7 52 -14 16 -14 18 0
18 8 0 17 -6 20 -12 2 -7 8 -10 12 -5 5 4 0 14 -11 22 -25 19 -33 19 -41 -1z"/>
<path d="M588 111 c16 -9 6 -81 -12 -93 -6 -4 5 -8 24 -8 25 0 31 3 21 9 -13
8 -13 12 -1 26 13 16 15 16 26 0 7 -9 10 -23 7 -31 -4 -10 3 -14 23 -14 l27 0
-20 22 c-34 39 -34 45 0 67 l32 21 -29 0 c-16 0 -26 -3 -23 -6 6 -6 -35 -44
-47 -44 -3 0 -6 9 -6 20 0 11 5 20 10 20 6 0 10 5 10 10 0 6 -12 10 -27 10
-19 0 -24 -3 -15 -9z"/>
<path d="M750 110 c0 -5 5 -10 10 -10 6 0 10 5 10 10 0 6 -4 10 -10 10 -5 0
-10 -4 -10 -10z"/>
<path d="M836 104 c-4 -10 -3 -20 2 -23 5 -3 12 -16 16 -28 8 -24 40 -31 52
-11 5 8 2 9 -9 5 -11 -4 -21 1 -28 15 -9 17 -9 23 0 26 6 2 11 9 11 15 0 5 -3
7 -7 4 -3 -4 -12 -2 -18 3 -9 8 -15 6 -19 -6z"/>
<path d="M746 72 c18 -12 25 -44 13 -58 -9 -11 -8 -14 2 -14 18 0 49 20 32 20
-8 0 -13 13 -13 30 0 24 -4 30 -22 30 -13 0 -18 -4 -12 -8z"/>
</g>
</svg>
